<?xml version="1.0" standalone="no"?>
<!DOCTYPE svg PUBLIC "-//W3C//DTD SVG 20010904//EN"
 "http://www.w3.org/TR/2001/REC-SVG-20010904/DTD/svg10.dtd">
<svg version="1.0" xmlns="http://www.w3.org/2000/svg"
 width="700.000000pt" height="700.000000pt" viewBox="0 0 700.000000 700.000000"
 preserveAspectRatio="xMidYMid meet">
<metadata>
Created by potrace 1.14, written by Peter Selinger 2001-2017
</metadata>
<g transform="translate(0.000000,700.000000) scale(0.100000,-0.100000)"
fill="#000000" stroke="none">
<path d="M1389 6996 c-2 -2 -26 -6 -54 -9 -125 -14 -245 -46 -380 -100 -199
-80 -350 -180 -505 -336 -150 -150 -246 -293 -333 -491 -28 -62 -83 -251 -92
-310 -2 -19 -8 -46 -12 -60 -4 -14 -8 -986 -9 -2160 -2 -2031 -1 -2140 16
-2245 10 -60 24 -128 31 -150 26 -91 43 -141 51 -150 4 -5 8 -15 8 -23 0 -22
94 -204 142 -275 234 -347 568 -571 986 -659 l107 -23 2125 0 c1849 0 2253 3
2279 20 4 2 22 6 41 9 132 21 415 135 481 192 8 8 20 14 26 14 6 0 13 3 15 8
2 4 21 19 43 33 132 88 285 246 394 407 117 173 209 421 239 642 4 30 7 1016
7 2190 l0 2135 -23 110 c-24 112 -54 216 -72 247 -6 10 -10 22 -10 27 0 24
-80 176 -146 276 -126 192 -307 365 -499 476 -119 68 -287 138 -385 160 -19 4
-46 10 -60 13 -14 3 -41 9 -60 12 -19 4 -44 9 -55 13 -22 6 -4289 14 -4296 7z"/>
</g>
</svg>
